<svg xmlns="http://www.w3.org/2000/svg" viewBox="0 0 762 762" fill="none" shape-rendering="auto" width="512" height="512"><desc>"Adventurer" by "Lisa Wischofsky", licensed under "CC BY 4.0". / Remix of the original. - Created with dicebear.com</desc><metadata xmlns:dc="http://purl.org/dc/elements/1.1/" xmlns:cc="http://creativecommons.org/ns#" xmlns:rdf="http://www.w3.org/1999/02/22-rdf-syntax-ns#"><rdf:RDF><cc:Work><dc:title>Adventurer</dc:title><dc:creator><cc:Agent rdf:about="https://www.instagram.com/lischi_art/"><dc:title>Lisa Wischofsky</dc:title></cc:Agent></dc:creator><dc:source>https://www.figma.com/community/file/1184595184137881796</dc:source><cc:license rdf:resource="https://creativecommons.org/licenses/by/4.0/" /></cc:Work></rdf:RDF></metadata><mask id="viewboxMask"><rect width="762" height="762" rx="0" ry="0" x="0" y="0" fill="#fff" /></mask><g mask="url(#viewboxMask)"><path d="M396 164.8a224.8 224.8 0 0 1 104.8 42.4c6.2 4.9 12.5 9.4 18 15a225.4 225.4 0 0 1 71.8 149 58.5 58.5 0 0 1 50.9 42.2 71 71 0 0 1-27.6 76.5c-11 7.7-24.5 12-38 11.7-5 0-10-1.6-15-1.8-1.9 2.2-3.3 4.9-4.8 7.3A223.3 223.3 0 0 1 389 609.8c-11 .7-21.9 2-33 .7a223.7 223.7 0 0 1-178.8-342.3A223.4 223.4 0 0 1 352 163.5c14.6-1.4 29.4-.3 44 1.3Z" fill="#000"/><path fill-rule="evenodd" clip-rule="evenodd" d="M498.8 213.2A216 216 0 0 0 363 169c-13-.2-26.2 1.6-39 4a218 218 0 0 0-113.6 365.5 218.5 218.5 0 0 0 260.4 40.2c35-18.8 64.2-47.3 84.4-81.5l-3-1.6c-2.8-1.4-5.7-3-8-5-2.2-2-.3-5.8 2.7-4.7 1.5.7 3 1.6 4.4 2.4a55 55 0 0 0 59.6-3.6 64.5 64.5 0 0 0 25-69.8 53.1 53.1 0 0 0-24-31 52.6 52.6 0 0 0-47-2.8c-1.6.8-3.4 1.5-5 1.3-2.5-.2-2.8-4.2-.6-5.2 8-4 16.5-5.6 25.4-6.4a217 217 0 0 0-72-146.4c-4.4-4-8.7-8.1-13.9-11.3Zm107.6 196.2c2-1.2 1.3-5.1-1.4-5-2 0-4.2.8-6.2 1.6l-1.4.4a95.1 95.1 0 0 0-25.5 12.4c-2.2 2-2.2 4.4.1 6.2a92 92 0 0 0 5.2 2.8 36 36 0 0 1 13 9.2c-.2 1.9-2 3.4-3.4 4.5l-.2.2c-3.9 3-8.8 5-13.6 7-2.5 1-4.9 2-7.1 3.1-1.7.8-2.6 2.2-1.6 3.9 1 2 3.2 1.1 5 .5l.6-.2 5.4-2.3c5.4-2.3 11-4.5 15.4-8 2.7-2.1 5.1-5.1 5.4-8.7-.5-3.4-2.7-5.7-5.3-7.8a83 83 0 0 0-11.6-7.2l-1.1-.6c5.4-3 10.8-5.6 16.6-7.7l5-1.7a52 52 0 0 0 6.7-2.6Z" fill="#ecad80"/><g transform="translate(-161 -83)"><path d="M555 424a65.3 65.3 0 0 1 66.3 75.5c-1 7.6-4 14.4-6.8 21.4-1.5.6-3 1.2-4.4 1.6-3.2 0-6.4-1.4-9.4-2.2a176.2 176.2 0 0 0-47.7-7 97.3 97.3 0 0 0-39.3 8.4c-2.9 1.3-5.7 3-8.6 3.9-3.6-.3-4.4-3.2-6-5.8A65.9 65.9 0 0 1 512 442c11.6-11 27-17.5 43-18Z" fill="#000"/><path d="M557 429.9a58.8 58.8 0 0 1 57.1 43.1 59.9 59.9 0 0 1-4.2 43.5c-6.2-.9-11.9-3-18-4.3a156.5 156.5 0 0 0-51.4-3.5 91.3 91.3 0 0 0-34.8 11.2 59.9 59.9 0 0 1 9.8-73.4 59.1 59.1 0 0 1 41.5-16.6Z" fill="#fff"/><path d="M381.2 447a55.4 55.4 0 0 1 60 45.4 55 55 0 1 1-59.9-45.4Z" fill="#000"/><path d="M376.5 453.7A49.6 49.6 0 0 1 436 506a49.9 49.9 0 0 1-45.1 45 49.3 49.3 0 0 1-14.5-97.3Z" fill="#fff"/><path d="M519.4 474.7a15.9 15.9 0 1 1 7.1 30.9c-9.2 2.2-18.8-5-19-14.6a15.7 15.7 0 0 1 12-16.3ZM403.4 485.6c9.6-3.2 20 4.4 20.4 14.3.8 8.9-6.9 17.1-15.8 16.8-8.6.4-16-7.1-16-15.7-.2-7 4.8-13.5 11.4-15.4ZM598.8 532.7l3.2 1c-.5 1.7-.3 3.3-1.7 4.5A39.8 39.8 0 0 1 575 548c-3.8-.1-8.6-1-11.5-3.8l-.4-3.6 2.8-1c4.5 2.2 9 3.5 14.1 2.3 7.5-1.3 12.6-5.5 18.8-9.3ZM347 547.8c2.3-.5 4 1.4 5.6 2.6a52.7 52.7 0 0 0 33.4 11.4c5.8.1 10.9-2.2 16.7-1.3-.5 2.4 0 4.4-3 5a58 58 0 0 1-52.8-12.4c-1.8-1.4-2.2-4.4.2-5.3Z" fill="#000"/></g><g transform="translate(-161 -83)"><path d="M523.2 384.4c6.2-.5 13.1-.6 18.5 3a10 10 0 0 1 4.5 10.7c-1.6 6.1-6.7 10.9-11.6 14.4a67.6 67.6 0 0 1-30.6 11.6c-5.6.5-12.5.4-17.5-2.6a10.2 10.2 0 0 1-5.2-10.3c1-5.8 5.5-10.5 10-14 9.1-7 20.5-11.3 32-12.8ZM392.2 401.2a47 47 0 0 1 26.3 5.3c3.9 2.2 7.4 5.9 8 10.5.3 4.2-2 7.8-5.3 10.2-4.5 3.6-9.8 5-15.4 6-10 1-20.6.3-29.5-4.6-3.9-2.2-7.9-5.8-8.4-10.5-.8-4.3 2-8.5 5.3-10.9a36 36 0 0 1 19-6Z" fill="#000"/></g><g transform="translate(-161 -83)"><path d="m525 563.7 1.2 2.3c.4 2.7-2 3.4-3.8 4.4a184 184 0 0 1-85.8 17c-5-.6-10.2-.7-15-2-2.3-1-2.6-4-.3-5.2 2.7 0 5.5.9 8.2 1 7.2 1 14.3.7 21.5.7 22.5-.8 45-6.8 65.7-15.5 2.8-1.2 5.2-2.6 8.3-2.7Z" fill="#000"/></g><g transform="translate(-161 -83)"></g><g transform="translate(-161 -83)"></g><g transform="translate(-161 -83)"><path d="M375.5 193.4c2.3.9 2.5 2.9 3.2 4.9A48.1 48.1 0 0 0 388 215a47 47 0 0 0 16.4 13.6c8 3.5 17.1 5.3 25.6 7.1a372 372 0 0 0 43 5.6c15.3 1.6 30.6 1.4 46 2.4 20.3 0 40.7.6 61-.7 8 0 16-.2 24-1a180.2 180.2 0 0 1 60.5 5.7c7.7 2.8 15.5 5.3 22.8 9a194 194 0 0 1 65.2 46.8c21.4 23.4 37 52.4 43 83.7A137 137 0 0 1 792 453c-2 7.4-4.7 14.4-9 20.6-4.3-3.2-8-6.6-13.1-8.6a52.6 52.6 0 0 0-39-3c-2.9.5-3.5 2.9-5 5a167.9 167.9 0 0 1-35.8 41.2c-9 7.2-18.6 13.8-28.4 19.7l-3-.8c-.2-3.1 0-6 .7-9 1.4-7.4 1.5-14.7 1.6-22.1-.1-10.4-.3-20.7-1.6-31-1.3-11.3-3.2-22.6-5-33.8-7-.7-14-.5-21-1.6a216.9 216.9 0 0 1-100-40.9 39.5 39.5 0 0 0 8.8 21c2.1 2.4 1.8 6-1 7.6-12.2 6.9-27.1 10-41 11.1a170.4 170.4 0 0 1-67.8-9c-17.9-6.3-35-15.5-47.2-30.4a54 54 0 0 0 4.4 24.3c1.3 2.3.4 5.2-2 6.4a49.5 49.5 0 0 1-31.5 4 72.5 72.5 0 0 1-36-20c-2.4 7.4-3.8 15-5.9 22.4-1.7 6.8-2.4 13.9-3.6 20.8-1.7 2.2-4.4-.5-5.6-2A60.6 60.6 0 0 1 295 411a71.1 71.1 0 0 1 8-33 70.9 70.9 0 0 1-4.8-41.6c-8.7 4.5-17.9 10-23.4 18.3-1.5 1.9-2.1 5-4.8 5.1-1.7-.5-3.1-1.1-4-2.8a58 58 0 0 1-6.8-35.2c1.5-14.3 7.7-28 16.1-39.4 12.3-16.6 30-29.3 49.7-35.5a77 77 0 0 1 37.8-2.9 44 44 0 0 1 6.1-47c1.7-1.7 4-4.7 6.6-3.6ZM718.5 576.5c2-1 5 .6 7 .9 5 1.4 11.3.4 15.8 3-.7 4-1.4 7.7 0 11.6 1.5 4.8 4.4 9.2 8 12.7 2.3 2.2 5.2 3.4 7.6 5.5.7 1.8.2 3.6-1.9 4-4.1.6-8.7-.7-12.8-1.4-9.9-2.2-21-4-29.8-9-2.2-1.4-5.7-3.2-6.2-6-.5-1.6.6-2.8 1.5-4.1 4.2-5.2 7-11.7 10.8-17.2Z" fill="#000"/><g fill="#3eac2c"><path d="M373.7 200.6A65.2 65.2 0 0 0 394 229a60.7 60.7 0 0 0 25 10.3c32.1 7.5 66.1 9.2 99 10 26 .2 52 .4 78-1 24.5-2.2 49-.5 72.5 7.4 35 11.4 66.5 33.7 89 62.8 17.8 22.9 30 49.6 33.6 78.5 3 23 0 46.6-9.7 67.7A78 78 0 0 0 763 456a59.9 59.9 0 0 0-30.7 0c.2-1.8 1-4 0-5.5-.9-1.5-3.6-1.3-4 .6a56.3 56.3 0 0 1-4.7 9.4 171.7 171.7 0 0 1-35.4 41.6c-7.3 6.3-15.2 11.4-23 16.8 2.3-14.1 2.3-28.8 1-43-1-17.4-4.3-34.9-7.5-52-1-4.6-1.5-9.8-3.6-14-1.2-2.3-5-2-4.7 1 1 4.8 2.4 9.4 3 14.2-40.5-.6-80-15.5-113-38.7-2.7-2-5.4-4.1-8.3-6-2 .9-4.3.8-4.4 3.5a46.1 46.1 0 0 0 10 28.7c-19.3 9.8-40.4 11.2-61.7 9.9-22-1.8-44.5-7.7-63.9-18.8a72 72 0 0 1-23.5-20.4c-1.3-1.8-2.3-3.4-4.6-3.9-1.5-.4-2.8.6-3.2 2a59 59 0 0 0 3.7 33.5c-12.8 6-27 4.7-39.6-1a74.5 74.5 0 0 1-37.7-41.2 62.6 62.6 0 0 1-2.8-36.8c.4-2.1 1-4-.8-5.6-2.3-2.1-5.1-.4-7.5.7-7.1 3.8-14.5 8-20.2 13.8-2.2 2.2-4 4.7-6 7A54 54 0 0 1 265 321c2-13.2 7.5-25.6 15.7-36.2a95.4 95.4 0 0 1 39-29.9c13-5.3 27.2-7.5 41.2-5.5 2.3.3 4.8 1.2 7.1 1 2-1.4 4-3.2 2.1-5.7a33 33 0 0 1-5.6-22.7c.6-7.6 3.5-16 9-21.4Z"/><path d="M306.2 385c3 4.7 6 9.4 9.5 13.8-1.4 6.8-3.8 13.3-5.1 20.2-1.2 5.7-3 11.4-4.2 17.1a64 64 0 0 1-.2-51.2ZM721.3 582c4.5 1 9.1 1.5 13.7 2.2-1 9.4 3.6 17 9.6 23.6-10.5-2.6-23.3-4.5-32.2-10.9 3.3-4.8 6-9.8 8.9-14.9Z"/></g></g><g transform="translate(-161 -83)"></g></g></svg>