<svg xmlns="http://www.w3.org/2000/svg" viewBox="0 0 762 762" fill="none" shape-rendering="auto" width="512" height="512"><desc>"Adventurer" by "Lisa Wischofsky", licensed under "CC BY 4.0". / Remix of the original. - Created with dicebear.com</desc><metadata xmlns:dc="http://purl.org/dc/elements/1.1/" xmlns:cc="http://creativecommons.org/ns#" xmlns:rdf="http://www.w3.org/1999/02/22-rdf-syntax-ns#"><rdf:RDF><cc:Work><dc:title>Adventurer</dc:title><dc:creator><cc:Agent rdf:about="https://www.instagram.com/lischi_art/"><dc:title>Lisa Wischofsky</dc:title></cc:Agent></dc:creator><dc:source>https://www.figma.com/community/file/1184595184137881796</dc:source><cc:license rdf:resource="https://creativecommons.org/licenses/by/4.0/" /></cc:Work></rdf:RDF></metadata><mask id="viewboxMask"><rect width="762" height="762" rx="0" ry="0" x="0" y="0" fill="#fff" /></mask><g mask="url(#viewboxMask)"><path d="M396 164.8a224.8 224.8 0 0 1 104.8 42.4c6.2 4.9 12.5 9.4 18 15a225.4 225.4 0 0 1 71.8 149 58.5 58.5 0 0 1 50.9 42.2 71 71 0 0 1-27.6 76.5c-11 7.7-24.5 12-38 11.7-5 0-10-1.6-15-1.8-1.9 2.2-3.3 4.9-4.8 7.3A223.3 223.3 0 0 1 389 609.8c-11 .7-21.9 2-33 .7a223.7 223.7 0 0 1-178.8-342.3A223.4 223.4 0 0 1 352 163.5c14.6-1.4 29.4-.3 44 1.3Z" fill="#000"/><path fill-rule="evenodd" clip-rule="evenodd" d="M498.8 213.2A216 216 0 0 0 363 169c-13-.2-26.2 1.6-39 4a218 218 0 0 0-113.6 365.5 218.5 218.5 0 0 0 260.4 40.2c35-18.8 64.2-47.3 84.4-81.5l-3-1.6c-2.8-1.4-5.7-3-8-5-2.2-2-.3-5.8 2.7-4.7 1.5.7 3 1.6 4.4 2.4a55 55 0 0 0 59.6-3.6 64.5 64.5 0 0 0 25-69.8 53.1 53.1 0 0 0-24-31 52.6 52.6 0 0 0-47-2.8c-1.6.8-3.4 1.5-5 1.3-2.5-.2-2.8-4.2-.6-5.2 8-4 16.5-5.6 25.4-6.4a217 217 0 0 0-72-146.4c-4.4-4-8.7-8.1-13.9-11.3Zm107.6 196.2c2-1.2 1.3-5.1-1.4-5-2 0-4.2.8-6.2 1.6l-1.4.4a95.1 95.1 0 0 0-25.5 12.4c-2.2 2-2.2 4.4.1 6.2a92 92 0 0 0 5.2 2.8 36 36 0 0 1 13 9.2c-.2 1.9-2 3.4-3.4 4.5l-.2.2c-3.9 3-8.8 5-13.6 7-2.5 1-4.9 2-7.1 3.1-1.7.8-2.6 2.2-1.6 3.9 1 2 3.2 1.1 5 .5l.6-.2 5.4-2.3c5.4-2.3 11-4.5 15.4-8 2.7-2.1 5.1-5.1 5.4-8.7-.5-3.4-2.7-5.7-5.3-7.8a83 83 0 0 0-11.6-7.2l-1.1-.6c5.4-3 10.8-5.6 16.6-7.7l5-1.7a52 52 0 0 0 6.7-2.6Z" fill="#763900"/><g transform="translate(-161 -83)"><path d="M555 424a65.3 65.3 0 0 1 66.3 75.5c-1 7.6-4 14.4-6.8 21.4-1.5.6-3 1.2-4.4 1.6-3.2 0-6.4-1.4-9.4-2.2a176.2 176.2 0 0 0-47.7-7 97.3 97.3 0 0 0-39.3 8.4c-2.9 1.3-5.7 3-8.6 3.9-3.6-.3-4.4-3.2-6-5.8A65.9 65.9 0 0 1 512 442c11.6-11 27-17.5 43-18Z" fill="#000"/><path d="M557 429.9a58.8 58.8 0 0 1 57.1 43.1 59.9 59.9 0 0 1-4.2 43.5c-6.2-.9-11.9-3-18-4.3a156.5 156.5 0 0 0-51.4-3.5 91.3 91.3 0 0 0-34.8 11.2 59.9 59.9 0 0 1 9.8-73.4 59.1 59.1 0 0 1 41.5-16.6Z" fill="#fff"/><path d="M381.2 447a55.4 55.4 0 0 1 60 45.4 55 55 0 1 1-59.9-45.4Z" fill="#000"/><path d="M376.5 453.7A49.6 49.6 0 0 1 436 506a49.9 49.9 0 0 1-45.1 45 49.3 49.3 0 0 1-14.5-97.3Z" fill="#fff"/><path d="M519.4 474.7a15.9 15.9 0 1 1 7.1 30.9c-9.2 2.2-18.8-5-19-14.6a15.7 15.7 0 0 1 12-16.3ZM403.4 485.6c9.6-3.2 20 4.4 20.4 14.3.8 8.9-6.9 17.1-15.8 16.8-8.6.4-16-7.1-16-15.7-.2-7 4.8-13.5 11.4-15.4ZM598.8 532.7l3.2 1c-.5 1.7-.3 3.3-1.7 4.5A39.8 39.8 0 0 1 575 548c-3.8-.1-8.6-1-11.5-3.8l-.4-3.6 2.8-1c4.5 2.2 9 3.5 14.1 2.3 7.5-1.3 12.6-5.5 18.8-9.3ZM347 547.8c2.3-.5 4 1.4 5.6 2.6a52.7 52.7 0 0 0 33.4 11.4c5.8.1 10.9-2.2 16.7-1.3-.5 2.4 0 4.4-3 5a58 58 0 0 1-52.8-12.4c-1.8-1.4-2.2-4.4.2-5.3Z" fill="#000"/></g><g transform="translate(-161 -83)"><path d="M414.2 389.8c-5.5-7.2-14.5-9.3-23.2-8.3a68 68 0 0 0-34.5 17 87.2 87.2 0 0 0-24.7 35.3c-.7 2-1.3 4.7 1 5.8 2.1.2 2.9 0 4.1-1.7a117.4 117.4 0 0 1 43.6-35.4 61 61 0 0 1 26.5-5.7c1 0 2.1.2 3.2.4 1.7.3 3.3.6 5 .3 2.8-2.2.7-5.3-1-7.5v-.2ZM592.9 408.1a147.2 147.2 0 0 0-59-19c-10-.7-21.4-.1-30.6 4.2-6.8 3.1-12.4 8.5-13.6 16.2l-.1 1c-.4 2.8-1 6.7 1.3 8.7 2 .8 3.6-.3 5.2-1.4l2.3-1.4a111 111 0 0 1 45.6-9.7c15.5 0 31.4 2.1 46 7.2l.5.1c1.5.4 2.7.8 3.9-.6 1.8-1.9.5-4.2-1.5-5.2Z" fill="#000"/></g><g transform="translate(-161 -83)"><path d="m397.2 574.5 55.8-.4c15.6-.5 31.3-.2 47-.4 3.8 0 7.3-.2 10.9 1.4 4.2 1.9 7.8 6 7.6 10.9.4 6.4-5.5 11-11.5 11.3l-99 .6c-4.4-.1-8.1 1-12.4-.5l-.8-2.3c1.7-5.7 2.5-11.2-.1-16.7-1-2 .2-3.9 2.5-3.9Z" fill="#000"/><path d="M510.5 581.6c2.1 1.8 3.3 4.8 1.3 7.3-2.4 3.3-7.5 2.6-11.1 2.5v-12c3.3.3 7.1-.2 9.8 2.2ZM401.7 580.2h5c.2 4 .3 8 .2 12h-5.1c.4-4 .4-8 0-12ZM412.5 580.2h13.6l.3 12h-13.2l-.7-12ZM432.1 579.9l19-.1v12c-6.2 0-12.5.3-18.9.2V580ZM456.8 579.8c6.2-.1 12.5 0 18.7-.2l.3 12-18.6.3c-.3-4-.4-8-.4-12.1ZM481.4 579.5c4.5.2 9 0 13.4 0v12c-4.4 0-8.8.2-13.2 0 0-4-.3-8-.2-12Z" fill="#fff"/></g><g transform="translate(-161 -83)"></g><g transform="translate(-161 -83)"></g><g transform="translate(-161 -83)"><g fill="#000"><path d="M558 248c37.7 5 74 19.9 104.4 42.7 4 3.3 8.3 6.2 12.2 9.7A223.6 223.6 0 0 1 749.7 438c1 6.7 2 13.3 1.5 20.2-4.1 2.9-8.2 1.6-13 2.5-5.8.7-10.8 3.1-16.2 5-2.8.1-2.7-2-3.6-4 7.5-5.3 18.2-7 27.3-7.8a217.8 217.8 0 0 0-73.1-147.4c-6-6.1-13-10.2-19.7-15.4-32.7-23-72-36.5-111.9-38.9-12.8-.2-26.1-.6-38.8 1.2a218.3 218.3 0 0 0-143 78.6l-4-1.6c.6-1.9.7-3.6 2-5.2A223.6 223.6 0 0 1 504 247.3l12.5-1c14-1 27.7 0 41.5 1.7Z"/><path opacity=".1" d="M541 252.2c40 2.4 79.2 16 112 39 6.6 5 13.7 9.2 19.5 15.3A217.8 217.8 0 0 1 745.7 454c-9 .9-19.8 2.5-27.3 7.9-3 2.2-6.2 4.5-9.8 5.8-1.5.7-3.3-1.2-3.2-2.7.3-3.5 1.5-6.9 2-10.4 2.2-13.9.6-28.4-4.6-41.4-5.5.4-10.7.7-16-1-9.8-2.9-17.5-9.2-24.4-16.5-8.5-9-15.5-19.8-21.2-30.8-9.7-18.7-16.4-39-20.8-59.6a180 180 0 0 1-35 12.4c-38 10.1-76.3 15.5-115.4 18.8-15 1-30 2-45 2-13.7 0-27.4-.1-41-1.7-8.5-.6-16.5-2.9-24.8-4.7a217.9 217.9 0 0 1 143-78.6c12.7-1.8 26-1.4 38.8-1.2Z"/></g></g><g transform="translate(-161 -83)"></g></g></svg>