<svg xmlns="http://www.w3.org/2000/svg" viewBox="0 0 762 762" fill="none" shape-rendering="auto" width="512" height="512"><desc>"Adventurer" by "Lisa Wischofsky", licensed under "CC BY 4.0". / Remix of the original. - Created with dicebear.com</desc><metadata xmlns:dc="http://purl.org/dc/elements/1.1/" xmlns:cc="http://creativecommons.org/ns#" xmlns:rdf="http://www.w3.org/1999/02/22-rdf-syntax-ns#"><rdf:RDF><cc:Work><dc:title>Adventurer</dc:title><dc:creator><cc:Agent rdf:about="https://www.instagram.com/lischi_art/"><dc:title>Lisa Wischofsky</dc:title></cc:Agent></dc:creator><dc:source>https://www.figma.com/community/file/1184595184137881796</dc:source><cc:license rdf:resource="https://creativecommons.org/licenses/by/4.0/" /></cc:Work></rdf:RDF></metadata><mask id="viewboxMask"><rect width="762" height="762" rx="0" ry="0" x="0" y="0" fill="#fff" /></mask><g mask="url(#viewboxMask)"><path d="M396 164.8a224.8 224.8 0 0 1 104.8 42.4c6.2 4.9 12.5 9.4 18 15a225.4 225.4 0 0 1 71.8 149 58.5 58.5 0 0 1 50.9 42.2 71 71 0 0 1-27.6 76.5c-11 7.7-24.5 12-38 11.7-5 0-10-1.6-15-1.8-1.9 2.2-3.3 4.9-4.8 7.3A223.3 223.3 0 0 1 389 609.8c-11 .7-21.9 2-33 .7a223.7 223.7 0 0 1-178.8-342.3A223.4 223.4 0 0 1 352 163.5c14.6-1.4 29.4-.3 44 1.3Z" fill="#000"/><path fill-rule="evenodd" clip-rule="evenodd" d="M498.8 213.2A216 216 0 0 0 363 169c-13-.2-26.2 1.6-39 4a218 218 0 0 0-113.6 365.5 218.5 218.5 0 0 0 260.4 40.2c35-18.8 64.2-47.3 84.4-81.5l-3-1.6c-2.8-1.4-5.7-3-8-5-2.2-2-.3-5.8 2.7-4.7 1.5.7 3 1.6 4.4 2.4a55 55 0 0 0 59.6-3.6 64.5 64.5 0 0 0 25-69.8 53.1 53.1 0 0 0-24-31 52.6 52.6 0 0 0-47-2.8c-1.6.8-3.4 1.5-5 1.3-2.5-.2-2.8-4.2-.6-5.2 8-4 16.5-5.6 25.4-6.4a217 217 0 0 0-72-146.4c-4.4-4-8.7-8.1-13.9-11.3Zm107.6 196.2c2-1.2 1.3-5.1-1.4-5-2 0-4.2.8-6.2 1.6l-1.4.4a95.1 95.1 0 0 0-25.5 12.4c-2.2 2-2.2 4.4.1 6.2a92 92 0 0 0 5.2 2.8 36 36 0 0 1 13 9.2c-.2 1.9-2 3.4-3.4 4.5l-.2.2c-3.9 3-8.8 5-13.6 7-2.5 1-4.9 2-7.1 3.1-1.7.8-2.6 2.2-1.6 3.9 1 2 3.2 1.1 5 .5l.6-.2 5.4-2.3c5.4-2.3 11-4.5 15.4-8 2.7-2.1 5.1-5.1 5.4-8.7-.5-3.4-2.7-5.7-5.3-7.8a83 83 0 0 0-11.6-7.2l-1.1-.6c5.4-3 10.8-5.6 16.6-7.7l5-1.7a52 52 0 0 0 6.7-2.6Z" fill="#9e5622"/><g transform="translate(-161 -83)"><path d="M550.3 424.4a65.7 65.7 0 0 1 68.2 43.3A65 65 0 0 1 598 540a65.4 65.4 0 1 1-47.7-115.6Z" fill="#000"/><path d="M549.3 430.3a59.6 59.6 0 1 1 15.1 118.3 59.6 59.6 0 0 1-15.1-118.3Z" fill="#fff"/><path d="M381.2 447A55.3 55.3 0 0 1 441 492a55 55 0 1 1-59.8-44.8Z" fill="#000"/><path d="M378.2 453.3a49.1 49.1 0 0 1 57.2 57.4 49.4 49.4 0 1 1-57.1-57.4Z" fill="#fff"/><path d="M527.2 466.2a23.8 23.8 0 1 1 5.7 47.1 23.8 23.8 0 0 1-5.6-47.1ZM358.5 480.9a21.8 21.8 0 0 1 28 16.5A21.7 21.7 0 0 1 369 523a21.9 21.9 0 0 1-24.6-14.2 22.3 22.3 0 0 1 14.1-28Z" fill="#000"/></g><g transform="translate(-161 -83)"><path d="M531 353.9c17 2 34 7.4 48.6 16.5a57 57 0 0 1 18.3 16.9c.9 1.2 1.2 3.5-.2 4.3-1.2 1.2-2.9.5-4.2 0a143 143 0 0 0-54-15c-13.4-.9-28.2-1-41 3.8-3 1-5.6 3-8.5 3.8-1.4.3-2.5-1-3-2.2a18 18 0 0 1 .3-14.8 23 23 0 0 1 13.3-10.7A72.5 72.5 0 0 1 531 354ZM414 408c8.2 2.4 14.6 10.9 13.6 19.5-1.9.6-3.6 1-5.6.7a108 108 0 0 0-42.8 5.9c-14 4.7-28.5 11.6-39.4 21.8-1.4 1.3-4.3 3-5.6.7-1.7-2.3 0-4 1.4-6a128 128 0 0 1 49-39c8.8-3.6 20-6.5 29.4-3.5Z" fill="#000"/></g><g transform="translate(-161 -83)"><path d="M495.2 561c15.5 1.8 31.3 5.5 44.5 14.2 7 4.6 13.5 11.3 15.3 19.8 2.4 8.6-3.6 18.2-11.7 21.4-7.2 3-14 1.8-21.3.1-6-1-12-1.6-18-1.8-22.6-1-45.1.8-67.2 5.8-5.7 1-11.1 3.2-16.8 3.7-6.5.1-13-3.1-16.8-8.5-3-4.1-4.4-9.6-4.3-14.7.6-7.8 5.4-15 11.2-19.9a85 85 0 0 1 35.4-16.8 157 157 0 0 1 49.7-3.3Z" fill="#000"/><path d="M506 568.6a76 76 0 0 1-35.8 13 92 92 0 0 1-41.5-5c8.8-4.8 19.4-7 29.2-8.8 16.1-2.2 32.1-2.4 48 .8Z" fill="#fff"/><path d="M513.8 570.3c11 3.2 22.5 7.7 30.4 16.5 4.2 4.8 7 11.2 4 17.4-3 6.2-9.7 8.6-16.2 8a234.4 234.4 0 0 0-69-2 239.8 239.8 0 0 0-36 6.8c-5.7 1.4-11.3 2.1-16.2-1.8-6.6-5.3-7.4-14.6-3.5-21.8a40.2 40.2 0 0 1 14.7-13.6c4 2.5 8.4 3.7 13 5a95 95 0 0 0 67-6.8c4.3-2 7.8-5.1 11.8-7.7Z" fill="#8F2E45"/></g><g transform="translate(-161 -83)"></g><g transform="translate(-161 -83)"></g><g transform="translate(-161 -83)"><path d="M754.9 186.1a94.7 94.7 0 0 1 29 52c5.3 43 5.3 86 11.8 128.9 4.5 31.8 10.7 66.1 25.5 94.9 10.3 20.5 21.8 40.5 31.8 61.1 8.6 17.7 14 37.3 14.8 57 .9 11.5.4 23.5-.6 34.9-2.2 18-7.9 36.3-17.5 51.8-7.5 12.2-19 21.4-30.6 29.5-1.3.8-2.5 2.8-4.1 2.6-2 0-3-2-2.5-3.8a95 95 0 0 0 6.5-69.1c-.3-1-.4-2.1-1.4-2.7-4.6 25.3-15 49.9-31.4 69.9-13.2 16-30 28.9-50.2 34.6a73.7 73.7 0 0 1-47-1.7c-1.6-1.7-4.5-3.3-3.3-6a68.1 68.1 0 0 0 16.8-32c-1.8.6-3.3 1.7-5 2.4a67.7 67.7 0 0 1-29.5 5.9c-9 0-19.3-2-26.3-8-1.8-1.6-4-3.2-3.3-5.9a69 69 0 0 0 12.8-32.3c.7-.9 1.9-1.4 2.8-2.1 26-18.2 47.3-42.2 63.5-69.5 1-2.3 3.4-2.8 5.6-2a55.2 55.2 0 0 0 41.4-4 64.8 64.8 0 0 0 34.3-65.5 55 55 0 0 0-19.8-36 50.2 50.2 0 0 0-55-6 123 123 0 0 1-4.6 32.1 123.4 123.4 0 0 1-35 58.3c-1.3 1-2.7 2.6-4.4 3.1-1.3.1-3.5-.9-3.5-2.5-.3-1.9 1.7-3.3 2.7-4.8a76.6 76.6 0 0 0 10-21.2c4.3-14 6-29.3 6.1-44-.3-26-5-52.4-16-76.1-.6-1.8-1.8-3.8-1-5.8 2-5 3-10.3 3.2-15.7-4.3 2.8-9 5.2-13.4 7.7-2.2 1.2-5.4 2.1-7.3 0-1.1-3.4-1-7.5-.7-11 .3-6.2.5-12.1 0-18.2-6.9 3.7-13.3 7.5-20.6 10.4-2.5 1-5.3 0-7.7-.9a83.6 83.6 0 0 1-29.2-23c-4.7-5.3-9-10.6-11.8-17.3-2.6-6-3.6-12.1-3.7-18.6-13.7 7.3-31 6.1-46.1 6.2-16 .3-32.2-.8-48 1.1-1.8.2-4.8-.8-4.9-2.9-.5-2.8 1.8-4.6 3.5-6.5-13.2 3.6-26.2 8.7-39 13-3.6.9-7 2.6-10.4.4-3.5-2.5-2.6-6.2-2.3-10-3 0-6 1.4-8.8 2.3a721.5 721.5 0 0 1-41 14.3c-9.5 2.9-19 5-29.1 4.8-4.8-.2-9.6.9-14 3a62.4 62.4 0 0 1-44.1-15 40.6 40.6 0 0 1-13-24.2 46 46 0 0 1 2-20 69.7 69.7 0 0 1 34.4-37.7c1.6-.8 3.9-2.4 5.7-1.4 1.7 1 2 3.4 1 5a49.6 49.6 0 0 0-5.8 57.9c4.4 7.3 10.9 14.2 19.5 16 2.6-15 10.8-29 20.5-40.6a205.6 205.6 0 0 1 49.4-41.6 297.1 297.1 0 0 1 114.9-41.3 176 176 0 0 1 66.5 2.6c17-22 42.5-37.2 70-41.6 30.7-5.4 63.9 3.6 86.9 24.8Z" fill="#000"/><g fill="#562306"><path d="M681 165.9c28-1.7 56.2 9.2 75.2 29.9a88.5 88.5 0 0 1 21.6 42.3c.6 7 2 13.8 2.2 20.8 1.3 9.7 1.5 19.4 2.5 29.1 1.2 22.6 3.1 45.5 5.7 68 4 29 8 57.1 17.6 85 5.8 16.7 14.1 31.4 22.3 46.9 7.8 14.9 16.1 29.7 22.9 45.1 11.9 27.4 13.5 58.6 9.4 87.9a112.7 112.7 0 0 1-22.5 52c-4.5 5-9.7 9.9-15.2 13.7 4.3-12.3 6.3-25.6 5.7-38.6-.3-12.7-3.2-26-9.2-37.2-1.2-2.3-5.1-2-5.7.7-3.7 30-15.6 60.3-36.2 82.8a90 90 0 0 1-52.4 29.8 66.1 66.1 0 0 1-32.2-3c8.3-10.9 15.8-25.2 15.7-39.1.2-2.8-3.4-3.3-5.1-1.8a53.9 53.9 0 0 1-19.3 8.6 52.6 52.6 0 0 1-34.5-2.3c-1.2-.8-3.7-1.9-4.2-3.2a84.7 84.7 0 0 0 11.5-29.8c1.5-2 4.1-3 6-4.7a226.1 226.1 0 0 0 59-66.2c4.7.4 9.3 1.8 14.2 1.9a66 66 0 0 0 55-27.5 72.5 72.5 0 0 0 14.1-39 62.6 62.6 0 0 0-20.9-50 55 55 0 0 0 6.6-19c3.1-19.7.1-40.7-4.4-60a214.8 214.8 0 0 0-21-53.1c-3.6-15.1-8.4-29.8-15.8-43.5a138 138 0 0 0-55.4-56.6c-1.2-.7-2.5-.9-3.9-1.1a58.9 58.9 0 0 0-44.3-24.4c-5-.8-9.9 0-14.9 0-3.3-2.4-7-3.2-11-3.4-6.1-.5-11 1.8-16.6-1.5A104.6 104.6 0 0 1 681 166Z"/><path d="M594 208c1 .4 2.3.3 2.9 1.4-2.4.6-4.8 1.4-7 2.3a320.2 320.2 0 0 0-75.1 33.9c-8.2 5-16.1 10.6-23.5 16.7-1.5 1.3-1.6 3.3-.5 5 1.5.8 2.8.8 4.1-.4a254.2 254.2 0 0 1 46.6-29.4 268.6 268.6 0 0 1 61.6-23c6.4-1 13.5-2.5 20-1.3 2.2.4 4.2 1.7 6.4 2.4 3 1.2 6.2.2 9.5.2 4.3.1 8.8.3 13 1.2 12.5 2.2 24 9 32 19a91.5 91.5 0 0 1 17.3 44.1c1 7.6 1.8 15.2 1.6 22.9 0 2.2 0 5.7 3 5.5 2.2 0 3-1.6 3-3.5 0-21.1-3-41.8-12.4-61a127.4 127.4 0 0 1 36.4 33 156 156 0 0 1 27.8 66c4.7 25.5 4.3 52.4 1 78-.5 3.3-1.3 6.8-1.1 10.1 1.3 3 5.2 2.2 5.5-1 1.7-8.8 2.7-18 3.2-27.1 1.6-16.3.9-32.1-.8-48.3.3 2 1.4 3.6 2.2 5.4A202.3 202.3 0 0 1 786 428c.3 11.7-.6 25.3-6.3 35.8a57 57 0 0 0-56-5.3c-.6-1.6-.5-4.2-2.8-4.4-1.7-.3-3.4 1-3.3 2.9.3 6.6.5 13.4-.2 20a130.9 130.9 0 0 1-22.6 58l-1 .5c.2-2 .8-3.7 1.4-5.5 5-16.8 6.3-34.2 5.8-51.6-1.2-24.9-6.5-50.5-17.4-73.1 2.4-6 3-12 3.8-18.3.1-2 .5-4.1 0-6.1-1.2-2.4-4.1-1.8-5.7-.1-3.2 3-7 5.1-10.9 7-1.6.8-3.2 2.2-5 2.2 0-3.6.4-7.3.2-11 0-5.9.5-12.4-1-18-2.5-2.2-5-1-7.2.9-6.2 3.5-12.5 6.8-19 9.6-1.8.8-3.4.2-5-.4a78.2 78.2 0 0 1-24.8-19.2 64.7 64.7 0 0 1-13.4-19.4 39.7 39.7 0 0 1 2-33c1-1.6.5-4.1-1.7-4.4-2.7-.6-4 3-5 4.9-2 4.5-4 10.9-8.4 13.6-9.6 4-19.4 4.3-29.6 4.2h-48c-2.6.1-5.1.6-7.8.8 2-3 5.3-5 3.1-8.9-3.2-2-6.4-.7-9.8-.1-13.2 3.5-26 8.6-39 13-2 .6-4 1.4-6 1 .1-2.8 1.4-6.8-1-9-2-2.3-4.8-2-7.5-1.5-7 1.8-13.2 4.6-20 7-12.9 4.5-25.9 9.3-39.2 12.5-7.5 1.7-15.1 1.9-22.8 2-3.7 0-6.3 2.6-10 2.3a54 54 0 0 1-26-5c-9.7-4.3-17.9-11.9-21.6-22a37 37 0 0 1 1.2-27 62.3 62.3 0 0 1 22-26.4c-1.6 4-3.3 7.8-4.3 12-4.5 19 .4 40.8 15.1 54.1 5.2 3.6 10 7 16.6 7.1 2.3 0 3.8-1.3 4.2-3.5 3.4-20.6 18-39.2 32.8-53.2 26.2-24.4 59.4-42.1 93-53.9 13.1-4.4 26.4-8 40-10.7 24.7-4.5 51.4-6.2 76-.4Z"/></g></g><g transform="translate(-161 -83)"></g></g></svg>