<svg xmlns="http://www.w3.org/2000/svg" viewBox="0 0 762 762" fill="none" shape-rendering="auto" width="512" height="512"><desc>"Adventurer" by "Lisa Wischofsky", licensed under "CC BY 4.0". / Remix of the original. - Created with dicebear.com</desc><metadata xmlns:dc="http://purl.org/dc/elements/1.1/" xmlns:cc="http://creativecommons.org/ns#" xmlns:rdf="http://www.w3.org/1999/02/22-rdf-syntax-ns#"><rdf:RDF><cc:Work><dc:title>Adventurer</dc:title><dc:creator><cc:Agent rdf:about="https://www.instagram.com/lischi_art/"><dc:title>Lisa Wischofsky</dc:title></cc:Agent></dc:creator><dc:source>https://www.figma.com/community/file/1184595184137881796</dc:source><cc:license rdf:resource="https://creativecommons.org/licenses/by/4.0/" /></cc:Work></rdf:RDF></metadata><mask id="viewboxMask"><rect width="762" height="762" rx="0" ry="0" x="0" y="0" fill="#fff" /></mask><g mask="url(#viewboxMask)"><path d="M396 164.8a224.8 224.8 0 0 1 104.8 42.4c6.2 4.9 12.5 9.4 18 15a225.4 225.4 0 0 1 71.8 149 58.5 58.5 0 0 1 50.9 42.2 71 71 0 0 1-27.6 76.5c-11 7.7-24.5 12-38 11.7-5 0-10-1.6-15-1.8-1.9 2.2-3.3 4.9-4.8 7.3A223.3 223.3 0 0 1 389 609.8c-11 .7-21.9 2-33 .7a223.7 223.7 0 0 1-178.8-342.3A223.4 223.4 0 0 1 352 163.5c14.6-1.4 29.4-.3 44 1.3Z" fill="#000"/><path fill-rule="evenodd" clip-rule="evenodd" d="M498.8 213.2A216 216 0 0 0 363 169c-13-.2-26.2 1.6-39 4a218 218 0 0 0-113.6 365.5 218.5 218.5 0 0 0 260.4 40.2c35-18.8 64.2-47.3 84.4-81.5l-3-1.6c-2.8-1.4-5.7-3-8-5-2.2-2-.3-5.8 2.7-4.7 1.5.7 3 1.6 4.4 2.4a55 55 0 0 0 59.6-3.6 64.5 64.5 0 0 0 25-69.8 53.1 53.1 0 0 0-24-31 52.6 52.6 0 0 0-47-2.8c-1.6.8-3.4 1.5-5 1.3-2.5-.2-2.8-4.2-.6-5.2 8-4 16.5-5.6 25.4-6.4a217 217 0 0 0-72-146.4c-4.4-4-8.7-8.1-13.9-11.3Zm107.6 196.2c2-1.2 1.3-5.1-1.4-5-2 0-4.2.8-6.2 1.6l-1.4.4a95.1 95.1 0 0 0-25.5 12.4c-2.2 2-2.2 4.4.1 6.2a92 92 0 0 0 5.2 2.8 36 36 0 0 1 13 9.2c-.2 1.9-2 3.4-3.4 4.5l-.2.2c-3.9 3-8.8 5-13.6 7-2.5 1-4.9 2-7.1 3.1-1.7.8-2.6 2.2-1.6 3.9 1 2 3.2 1.1 5 .5l.6-.2 5.4-2.3c5.4-2.3 11-4.5 15.4-8 2.7-2.1 5.1-5.1 5.4-8.7-.5-3.4-2.7-5.7-5.3-7.8a83 83 0 0 0-11.6-7.2l-1.1-.6c5.4-3 10.8-5.6 16.6-7.7l5-1.7a52 52 0 0 0 6.7-2.6Z" fill="#ecad80"/><g transform="translate(-161 -83)"><path d="M550.3 424.4a65.7 65.7 0 0 1 68.2 43.3A65 65 0 0 1 598 540a65.4 65.4 0 1 1-47.7-115.6Z" fill="#000"/><path d="M549.3 430.3a59.6 59.6 0 1 1 15.1 118.3 59.6 59.6 0 0 1-15.1-118.3Z" fill="#fff"/><path d="M381.2 447A55.3 55.3 0 0 1 441 492a55 55 0 1 1-59.8-44.8Z" fill="#000"/><path d="M378.2 453.3a49.1 49.1 0 0 1 57.2 57.4 49.4 49.4 0 1 1-57.1-57.4Z" fill="#fff"/><path d="M527.2 466.2a23.8 23.8 0 1 1 5.7 47.1 23.8 23.8 0 0 1-5.6-47.1ZM358.5 480.9a21.8 21.8 0 0 1 28 16.5A21.7 21.7 0 0 1 369 523a21.9 21.9 0 0 1-24.6-14.2 22.3 22.3 0 0 1 14.1-28Z" fill="#000"/></g><g transform="translate(-161 -83)"><path d="M568.4 406c-.6-3-2.4-5-4.6-6.9a50 50 0 0 0-45.6-11.5 37.8 37.8 0 0 0-23.6 17c-2.9 5-4.8 10.6-4 16.4l.2 1.2c.2 1.7.3 3 2.4 3.6 2.2.1 4.4-.3 6.6-.7h.3l6.2-1.3 15.7-3.1c15-3.2 30-6.9 44.8-11.1 1.8-.3 1.7-1.6 1.7-3v-.6ZM430.1 431c-.8-9.8-8.9-17.4-17.9-20.3-13.2-4-28.3-.4-38.3 9.2a28 28 0 0 0-9.1 16.1c-.1 2.7 2.3 2.8 4.4 2.8h.8l9-.1c9.4-.2 18.7-.4 28-1.3 2.4-.3 4.8-.4 7.3-.6 4.2-.3 8.5-.6 12.7-1.1 2.4 0 3.3-2.6 3.1-4.6Z" fill="#000"/></g><g transform="translate(-161 -83)"><path d="M504 568.7c3.7-1.3 5.6 4 2.2 5.5-5.7 2.8-10.8 6.6-13 12.8-2.2 6.4.5 13.1 4.8 18 3 3.4 6.6 5.4 10.4 7.7 2 1 1.3 2.8 1.1 4.6l-2.5 1A37 37 0 0 1 491 606c-2.3-3.2-3.3-6.7-4.6-10.3-25.1 2-50.4 2.8-75.5 4.7-1.8-.3-2.4-2-3.5-3.3 1.1-1.2 1.7-2.7 3.5-2.8 17.4-.9 34.6-2 52-3 7.8-.7 15.7-.5 23.5-1.5a27.9 27.9 0 0 1 17.5-21Z" fill="#000"/></g><g transform="translate(-161 -83)"></g><g transform="translate(-161 -83)"></g><g transform="translate(-161 -83)"><g fill="#000"><path d="M570.1 171.1c2.7-1 4.9.6 5.8 3 2.5 7.7 1 16.5-1.7 24a54 54 0 0 1 20.8-7c16.4-2 32.5 2.3 46.9 10a133.4 133.4 0 0 1 30.8 24.2 93.4 93.4 0 0 0 34.3 23.6 37.7 37.7 0 0 0 23.5.6c2-.4 5.2-1.7 6.9.1 1.7 1.5.7 4.3.4 6.2a52.7 52.7 0 0 1-18.7 29.3 61.2 61.2 0 0 1 30.7 28.1 89.6 89.6 0 0 1 9.9 43.8c.1 10.6-2 21-5.2 31a53 53 0 0 1 13.5 31 74 74 0 0 1-7.7 40.5c-.9 1.8-2.6 1.1-4.3 1.2a50.5 50.5 0 0 0-29.9 3.6c-2 .7-3.8 1.6-6.1 1.1-7.4-1.3-13.6-5.5-20.8-7.9a122 122 0 0 1 8.9 13.6c.7 1.4 1.7 3.2 1.7 4.9-.2 2.4-3.5 3.2-4.7 1-4-7.3-8.2-14.2-13.6-20.5-2.6-2.6.4-6.2 3.5-5.7 4.2.7 8.3 2.7 12.4 4-3.6-5-7.2-10.3-11.5-14.7-2-2.2-4.8-3.9-6.8-6.2-.2-1.4.2-2.8.6-4.1a81.3 81.3 0 0 0 .8-44.6c-3-12-8-23.4-16.2-32.9-5.2-2.2-10.3-4.5-15-7.5-11.4-6.8-20.8-16.1-31.9-23.1A51.7 51.7 0 0 0 578 319c-1.5.6-3.1.4-3.6-1.4-1.4-2.7.5-4.4 1.8-6.6 4.8-6.7 9.8-13.2 15-19.7-7.3 4-13.8 9.2-19.8 15a37.3 37.3 0 0 0-6.4 8.8l-5 .5c-2.4-2.8-3-6.1-6.4-8.2-6.3-4.1-15.4-3.7-22.5-2.4-18.9 3.8-37.4 10.1-57 10.7a53.4 53.4 0 0 1-31.7-8.7c-7.4 5-15.2 9-24.1 10.6a99.2 99.2 0 0 1-43.3-2.7c-7.6 6.1-12.8 13.6-18.9 21-6.1 8-12.2 16.3-16.8 25.1-1 1.6-1.8 3.7-3.3 4.8a30 30 0 0 1-13.9 4.3 37 37 0 0 1-24.5-5.7 28.3 28.3 0 0 1-11-18.5 56.8 56.8 0 0 1 3-29.5c.7-2.3 3.6-3.2 4.9-1 2.2 4.5 3.2 8.8 8.4 10.8 4.6 1.4 10.4-1.1 14.7-2.8a40.6 40.6 0 0 1-12.4-35 96 96 0 0 1 27.4-54 84.2 84.2 0 0 1 42-24.2c6.3-1.5 13-3.2 19.5-2.8 2.4 0 3.1 3.4 1.3 4.8a33.3 33.3 0 0 0-9 32.1c3.4-5.7 6.5-11.3 10.8-16.3a96.2 96.2 0 0 1 62.9-32.2c9.3-1.4 18.6-1.2 28-2 23.3-.5 46.7-3.6 67.9-14 5-2.4 9.2-6.4 14.2-8.8Z"/><path d="M699.8 472.2c2.2 3.5 3.8 7.5 5.6 11.3.9 2.2 2.3 4.4.8 6.8-1.2.4-2.2.6-3.4 0-1.9-2.6-2.8-6-4.3-8.9-1.4-3.5-3.7-6-3.2-10 1.5 0 3.5-.8 4.5.8Z"/></g><path d="M570.8 177.2c1.5 7-.1 14.8-3.2 21.3-.9 2.2-3.4 4.8-2.2 7.2.6 1 2.5 2.2 3.6 1.4 4-2 7.6-4.6 11.7-6.4a52.8 52.8 0 0 1 28.3-4.1 89 89 0 0 1 46.6 20.8c8.2 6.5 14.9 14.4 22.9 21.1 8.5 7 18 13.3 28.6 16.5a42.8 42.8 0 0 0 24.9.2 53.8 53.8 0 0 1-12.5 22.2c-2.7 2.6-6 4.1-9 6.2-1.6 1.3-1.9 2.7-.8 4.6 3.4 1 6.8 1.5 10 3 8.1 4 15.3 10 20.6 17.5a80.6 80.6 0 0 1 13.3 37.3c1 12.2.2 24.4-3.4 36.2-.6 2.2-1.8 4.4-2.2 6.7 2.4 3.3 5.8 5.8 7.7 9.5 9.7 16.7 8.5 36.3 1.6 53.8-.5.9-.8 3.2-2.3 2.7-9.5-1.4-18.9-.2-27.8 3.2-2 .7-4 1.9-6.2 2-1.5-.2-3-.7-4.5-1.2a107 107 0 0 0-21.4-26.7 91.4 91.4 0 0 0-12.4-77.9 53 53 0 0 0 31.9-5.7c3.2-1.6 6.9-3 9.8-5.2 2-2.2.1-4.9-2.5-5-10.4-.2-19.6-7.6-26.1-15.2-5-6.3-10.1-13.2-9.3-21.7l-2.5-.8-2.6 1c-1.6 5.4.4 10.1 2.9 14.9a58.4 58.4 0 0 0 28.7 26.3 51.3 51.3 0 0 1-25 6.2 54.5 54.5 0 0 1-23.4-7.8c-11.7-6.7-20.9-15.6-31.9-23a52.7 52.7 0 0 0-21.7-9c-9.2-1.2-18.9-1-27.8 2 5-7 10.2-13.8 15.8-20.3 1.4-1.6 2.8-3.3 4-5.1 1-1.4.4-3.7.4-5.3-2.1 0-4-.2-6 .9a96.3 96.3 0 0 0-35.1 27.5 22 22 0 0 0-10.9-8.5 53 53 0 0 0-28.4.5c-18.2 3.9-37.2 10.2-56 8.7-12-.7-23.8-7-31.1-16.6a44 44 0 0 1-3.4-44.6 57.7 57.7 0 0 1 26.3-26.1c-.6 4.8-.8 9.2 1 13.8a25.2 25.2 0 0 0 16.2 15c9.2 2.9 19.2 3.4 28.5 6.5 1.7.5 3.7 1.4 5.5 1.2 1.4-.1 2-2 2.7-3-1.6-1.4-3-2.7-5.2-3.4-8-2.8-17-3.8-25.5-5.6-3.4-.9-7-2-10-4-5.8-4-9.1-11.7-7.5-18.7 1.2-4.4 5.2-5.3 8-9l-1.2-3c-4.7-.5-9.3 2.6-13.6 4.4A62.4 62.4 0 0 0 425 252a48.6 48.6 0 0 0 13 51.8 75.3 75.3 0 0 1-11.4 5.8c-9.6 3.9-20.3 4-30.5 3.3a81 81 0 0 1-48.7-19.2c-2-1.9-3.2-4.4-5.2-6.4-2.1-.2-3.3.5-3.4 2.7 0 3.7 3.4 7 6 9.2a90 90 0 0 0 24 14c-3.4 3.4-6.8 6.8-9.9 10.6-8.5 10.4-17.5 21.3-23.9 33.1-1.6 3-3 5.6-6.4 6.7-7.2 2.1-16 1.8-23-1.1a21 21 0 0 1-11.6-11.6 45 45 0 0 1-1.3-25.2c2.9 2.6 5.4 5.6 9.4 6.3 6.6 1.2 12.6-1 18.5-3.6 2-1 3.8-2.2 4.3-4.5 0-2-2.1-3-3.4-4.3-5.7-4.7-9-11.4-10.3-18.6-1.4-9.4.3-18.6 3.4-27.5a99.8 99.8 0 0 1 27.6-40.3 82 82 0 0 1 43.7-19.3c-4.2 7.9-7 16-6 25.1.4 4 1 8.6 3.2 12 1.6 1.5 3.8 3.9 6.1 2.2 3-10 9-18.5 16.2-26a94.2 94.2 0 0 1 51.8-25c11.3-1.7 22.5-2.2 34-2.5 23.3-1 45.8-4.1 67-14.5 4.6-2.2 8.5-5.3 12.7-8Z" fill="#e5d7a3"/></g><g transform="translate(-161 -83)"></g></g></svg>