<svg xmlns="http://www.w3.org/2000/svg" viewBox="0 0 762 762" fill="none" shape-rendering="auto" width="512" height="512"><desc>"Adventurer" by "Lisa Wischofsky", licensed under "CC BY 4.0". / Remix of the original. - Created with dicebear.com</desc><metadata xmlns:dc="http://purl.org/dc/elements/1.1/" xmlns:cc="http://creativecommons.org/ns#" xmlns:rdf="http://www.w3.org/1999/02/22-rdf-syntax-ns#"><rdf:RDF><cc:Work><dc:title>Adventurer</dc:title><dc:creator><cc:Agent rdf:about="https://www.instagram.com/lischi_art/"><dc:title>Lisa Wischofsky</dc:title></cc:Agent></dc:creator><dc:source>https://www.figma.com/community/file/1184595184137881796</dc:source><cc:license rdf:resource="https://creativecommons.org/licenses/by/4.0/" /></cc:Work></rdf:RDF></metadata><mask id="viewboxMask"><rect width="762" height="762" rx="0" ry="0" x="0" y="0" fill="#fff" /></mask><g mask="url(#viewboxMask)"><path d="M396 164.8a224.8 224.8 0 0 1 104.8 42.4c6.2 4.9 12.5 9.4 18 15a225.4 225.4 0 0 1 71.8 149 58.5 58.5 0 0 1 50.9 42.2 71 71 0 0 1-27.6 76.5c-11 7.7-24.5 12-38 11.7-5 0-10-1.6-15-1.8-1.9 2.2-3.3 4.9-4.8 7.3A223.3 223.3 0 0 1 389 609.8c-11 .7-21.9 2-33 .7a223.7 223.7 0 0 1-178.8-342.3A223.4 223.4 0 0 1 352 163.5c14.6-1.4 29.4-.3 44 1.3Z" fill="#000"/><path fill-rule="evenodd" clip-rule="evenodd" d="M498.8 213.2A216 216 0 0 0 363 169c-13-.2-26.2 1.6-39 4a218 218 0 0 0-113.6 365.5 218.5 218.5 0 0 0 260.4 40.2c35-18.8 64.2-47.3 84.4-81.5l-3-1.6c-2.8-1.4-5.7-3-8-5-2.2-2-.3-5.8 2.7-4.7 1.5.7 3 1.6 4.4 2.4a55 55 0 0 0 59.6-3.6 64.5 64.5 0 0 0 25-69.8 53.1 53.1 0 0 0-24-31 52.6 52.6 0 0 0-47-2.8c-1.6.8-3.4 1.5-5 1.3-2.5-.2-2.8-4.2-.6-5.2 8-4 16.5-5.6 25.4-6.4a217 217 0 0 0-72-146.4c-4.4-4-8.7-8.1-13.9-11.3Zm107.6 196.2c2-1.2 1.3-5.1-1.4-5-2 0-4.2.8-6.2 1.6l-1.4.4a95.1 95.1 0 0 0-25.5 12.4c-2.2 2-2.2 4.4.1 6.2a92 92 0 0 0 5.2 2.8 36 36 0 0 1 13 9.2c-.2 1.9-2 3.4-3.4 4.5l-.2.2c-3.9 3-8.8 5-13.6 7-2.5 1-4.9 2-7.1 3.1-1.7.8-2.6 2.2-1.6 3.9 1 2 3.2 1.1 5 .5l.6-.2 5.4-2.3c5.4-2.3 11-4.5 15.4-8 2.7-2.1 5.1-5.1 5.4-8.7-.5-3.4-2.7-5.7-5.3-7.8a83 83 0 0 0-11.6-7.2l-1.1-.6c5.4-3 10.8-5.6 16.6-7.7l5-1.7a52 52 0 0 0 6.7-2.6Z" fill="#763900"/><g transform="translate(-161 -83)"><path fill-rule="evenodd" clip-rule="evenodd" d="M613 456a65 65 0 0 0-114.3 3.7c-3.3 6.3-5.2 13-6.5 20-4.4.4-8.8.9-13 2l.3 1.5c.3 1.4.6 2.6 2.3 3 2.3.2 4.8 0 7.1-.3l2.8-.2A65.1 65.1 0 0 0 612 524c6.5-10.2 9.8-22 10-34 .1-3.9-.3-7.5-.8-11.2l-.4-3 3-.2c2.2-.2 4.5-.4 6.8-1 1.1-.5 1.4-1.6 1.6-2.8l.4-1.4c-4.4-1.1-8.7-.8-13.2-.3l-1.4-3.5c-1.5-3.6-3-7.2-5.1-10.7Zm.6 14.7a59.9 59.9 0 0 0-106.7-13.8 58.4 58.4 0 0 0-8.8 22.5c6-.7 11.9-1 17.9-1.5l14.5-1.1 11-.7c4.8-.3 9.6-.5 14.4-1.1 16.4-1.1 32.8-2.4 49.2-3.7l8.5-.6Zm-200.2-17.1c12 6.5 21 17.4 25.6 30.1 2.6.2 5.3.4 8 .8l-.1.7-.6 3c-1 .8-2.5 1-3.9 1.3l-1.6.4a55 55 0 1 1-109 9l-7.2-.3.1-1.3c.1-1.2.2-2.7 1.2-3.2 1.5-.5 3.2-.7 4.8-1 .6 0 1.2 0 1.8-.2a55 55 0 0 1 80.9-39.4Zm19.7 30.8a49.3 49.3 0 0 0-94.7 8c7-.4 14-1 21-1.6a1133.2 1133.2 0 0 1 29.9-2.4 1075.2 1075.2 0 0 1 18-1.3c8.6-.6 17.3-1.2 25.8-2.7Z" fill="#000"/><path d="M615.1 476.4a59.8 59.8 0 0 1-67.2 71.8 59.7 59.7 0 0 1-50.7-62.9l8.4-.8c.5 6.9 2.8 13.1 8 17.8a24.6 24.6 0 0 0 41.2-21.1c4.5-.5 9-1.1 13.4-1.4 15.7-1 31.3-2.6 47-3.4ZM431 490.8l3.7-1a49.5 49.5 0 0 1-85.8 43.2 49.9 49.9 0 0 1-11.2-34.6c16.4-1.6 33-2.6 49.4-4.4.1 5.6 1.1 10.8 4.7 15.2a22.3 22.3 0 0 0 23.4 8c7-2.3 13-8 15-15.2 1.2-3.8.6-7.3.7-11.2Z" fill="#fff"/></g><g transform="translate(-161 -83)"><path d="M517 379.7c1-1 2.2-2.3 1.8-3.6-.3-2.5-3.5-3.1-5.2-1.5l-8.3 7.4-6.5 5.8-3 2.7a44.3 44.3 0 0 0-7.4 7.5l.9 1c.7 1 1.4 1.8 2.7 1.8 1.5 0 2.7-1.1 3.8-2l.4-.4c4.3-4 8.7-8 13.1-11.8l7.6-6.8.2-.1ZM539.7 378.7c.5-1.8-.2-3-1.6-4-2-.4-3.9.7-5.6 1.7l-1.3.8-13.4 7.7-14.4 8.4c-1.6.9-1.7 2-1.7 3.4v1.5l1.2.3c1.2.4 2.3.8 3.6 0l15.1-8.6a959.6 959.6 0 0 1 14.4-8.3 10 10 0 0 0 3.7-3ZM566.4 378.4c2-.7 4.2.2 4.4 2.6 0 2.3-1.7 2.9-3.5 3.5l-.8.3a5914.4 5914.4 0 0 0-37.6 11.6c-1.3.4-2.6.8-4 0-1.8-1.2-1.7-4.2.4-5.1 1.8-.9 3.7-1.4 5.7-2l2.6-.8 11.5-3.5 21.3-6.6ZM589.4 390.4c1-1.7.6-3-.5-4.5-2.2-.7-4.9 0-7.4.5l-2.5.5-8.5 1.7-12.4 2.5c-2 .5-3.7 1.7-3.1 3.9.6 2 2 2.4 4 2.1l12-2.3 11.5-2.3c.5 0 .9-.2 1.3-.3 2-.3 4-.7 5.6-1.8ZM405.8 394.7a231.8 231.8 0 0 0 8 5v.1c1.8 1 3.5 2.1 5 3.4 1.8 1.4 1.3 4.3-.8 5-1.8.3-3-.4-4.4-1.3l-1-.6a1584 1584 0 0 0-12.9-8.2l-4.2-2.7-.3-.2-.4-.3c-1-.7-2.4-1.6-2.4-2.9-.3-2.4 2.2-4 4.4-2.9 3 1.7 6 3.7 9 5.6ZM384 395.5c-2-.6-4-1.3-6-1.7-2.5-.5-4.1 2-3.3 4.3a8.7 8.7 0 0 0 4 2.2l.5.2h.3l12 4 12.5 3.9c2.4.8 4.8.6 5.3-2.4-.2-2.1-2-2.8-3.7-3.5h-.1l-.3-.1-.5-.2-18.2-5.8-2.6-.9ZM587.1 395.3l10.4-.3c2.5 0 5 0 7.5-.2h1.3c1.7 0 3.6 0 4.4 1.6 1.2 1.7-.3 3.7-2 4.2-3 .6-6.1.6-9.2.5H596l-3 .1a80 80 0 0 1-5 0c-1.3 0-3.2-.3-3.5-1.6a3 3 0 0 1 2.6-4.3ZM360.3 402.9c-2-.1-4.2-.2-6.1.3-1.5 1.2-1.5 3.4-.1 4.8 1.6.7 3.6.8 5.4 1h.5l10.3.6 11.7.7 2.6.1c1.8.2 3.7.4 5.4 0 2-.6 2.6-3.1 1.2-4.6-.9-1-2-1-3-1.1l-1.2-.1-12.5-.9-12.5-.8h-1.7ZM349 411.6l4.5-.3c4.1-.3 8.4-.7 12.5-.4 3 .2 3.1 4.7.3 5.4-3 .7-6 .9-9 1-1.8 0-3.6 0-5.3.3l-3.6.2c-2.4.2-5 .5-7.3.1-2.5-.4-2.8-4.4-.5-5.3a19 19 0 0 1 5.7-.8c1 0 1.8 0 2.7-.2ZM345.5 425.4c3-1 2.8-5.3-.5-5.7-2.8 0-5.7.6-8.5 1l-4 .8-2.6.4c-2.2.2-4.8.6-6 2.1-1.2 2.4.5 4.6 3 4.4 6.2-.7 12.6-1.7 18.6-3Z" fill="#000"/></g><g transform="translate(-161 -83)"><path d="m525 563.7 1.2 2.3c.4 2.7-2 3.4-3.8 4.4a184 184 0 0 1-85.8 17c-5-.6-10.2-.7-15-2-2.3-1-2.6-4-.3-5.2 2.7 0 5.5.9 8.2 1 7.2 1 14.3.7 21.5.7 22.5-.8 45-6.8 65.7-15.5 2.8-1.2 5.2-2.6 8.3-2.7Z" fill="#000"/></g><g transform="translate(-161 -83)"></g><g transform="translate(-161 -83)"></g><g transform="translate(-161 -83)"><path d="M710 136c13.2.3 26.3 5 36.5 13.5 1.2 1 1 3 0 4-1.6 1.1-3.6.5-5.5.4a44 44 0 0 0-17 2c-12.9 4-23.1 12.6-31.4 23 6.6-2 13.4-3.2 20.4-3 16.9.5 32.8 6.1 47.2 14.8 18.3 11 34.2 27.4 43.4 46.8a59.2 59.2 0 0 1 5.2 38.3c-2.2 9.3-8.1 17.6-16.2 22.8-6.6 4.4-14 6.2-21.7 7.3 3.3 5.5 7 10.6 9.7 16.5 8 16.7 11.5 36.2 13.4 54.6.4 7.3 1 14.7 1.1 22-.5 10.2-.3 20-2 30-1 10-2.9 20.2-6.3 29.8-1.4 3.6-3.4 8.2-7 10.2-1.6 1-3.2-.3-4.7-1-8.3-5-18.1-8-27.9-7.9A72 72 0 0 1 741 486a56.3 56.3 0 0 1-35.5 31.4 44 44 0 0 1-25.4-.4c-2-.6-2.2-3.3-.6-4.5 2.7-2.4 5.6-4.2 7.8-7.1a74.5 74.5 0 0 0 14.6-37.4c.8-10 .7-21.4-4.7-30.1-1.7-2.9-4.4-4-6.6-6.4A63 63 0 0 0 685 411c-1-2.4-2.7-4.7-1.3-7.2 1.6-3.3 3.6-6.3 5.5-9.5-3.5.4-6.6.5-9.3-2-5.2-5-8.5-12-10.3-18.9-1.2-4.4-3.3-8.8-3.8-13.3 0-1.5 1-2.3 2.3-2.6 4.3-1.2 7.7-3.5 11.4-5.9 3.8-2.5 6.3-6 8.6-9.8-8 .8-16.4.9-24.3-.6-10.9-2.2-20-7.2-29.7-12.2-4.7-2.6-9.1-4.8-11.8-9.7-10.8-2.6-21.6-5.2-32.3-8.3-17.6-4.9-34.6-10.6-53-11.4-16.1-.8-32.5 1.4-48.2 5-4.7 1-8.8 3.2-12.7 6l-2.7-1.4c.5-7 4.6-14 7.7-20a101 101 0 0 0-20.6 20.4c-1.4 1.9-2.3 4.4-4 6-4.5 1.4-9.8.6-14.5.8-6.7.2-13.4-.6-20-1-6.3 1.9-12 5.3-18.1 7.6-13.4 5-27.1 8-41.4 5.2-3.6 3.9-7 8-10 12.3a278 278 0 0 0-21 35.1c-6 11.6-9.8 23.6-13.9 36-1.4 4.8-2 9.9-3.3 14.7-1.1 4-1.3 8-2 12-2.2 2.4-6.5 3-9.4 4.7a86.3 86.3 0 0 0-36 51.9c-.7 3.8-.4 7.5-.7 11.3-1.3 2.2-4.1 2.4-5.3 0-3.8-8.3-5-18-5-27.1a97.7 97.7 0 0 1 59-85.2c-4-10-5.3-21-5.7-31.8-.4-10.6 1.6-20.7 3.7-31 3-12.8 7.5-25 15-35.8a30.2 30.2 0 0 1-17-8.1 40.8 40.8 0 0 1-10.8-28.1 74 74 0 0 1 13.5-42.4 59.6 59.6 0 0 1 29.6-23.4 54.2 54.2 0 0 1 21.4-26.5c2.8-1.3 4.5-.5 5.8 2.2a44.6 44.6 0 0 0-2.6 13.2c6-4.3 13-6.5 20.2-7.9 10.5-2.3 22-1.7 32.3 1.4a33.3 33.3 0 0 1 20 17.1 34 34 0 0 1 .2 25.6 164 164 0 0 1 51.5-7.7c10.2 0 20.5 1.2 30.4 4A79 79 0 0 1 542 224a21 21 0 0 1 7 7c19-6.2 39-9 59-8 10.3.5 20.6 2.7 30.6 5.4a60.2 60.2 0 0 1 .8-48c12-27 41-45.6 70.6-44.3ZM726.5 578c4.4.9 9 .6 13.5.9 6.4.2 12-1.4 18.1-3 1.8-.5 3-.7 4.7.3a25 25 0 0 1 9.5 10.6c3.8 7.6 4 16 3 24.4a54.9 54.9 0 0 1-25.9 38.2c-2.2 1.2-4 1.8-6-.3-.4-2.6 2-5.1 2.8-7.6 1-4.3 1-9 .2-13.3a52 52 0 0 0-22.3-32.3c-4.6-3.2-9.5-2.8-12.6-8 2.5-3.6 4.6-7.6 7.1-11.3 2.4-1.2 5.4 1 7.9 1.5Z" fill="#000"/><g fill="#562306"><path d="M734.4 148.2c-16 1-31 9.9-41.6 21.6a80.6 80.6 0 0 0-19.1 73.2c-8.7-4.6-17.8-8.8-27.1-11.9-4.6-7.5-7-16.2-6.9-25.1a60.5 60.5 0 0 1 16-40.3A70.5 70.5 0 0 1 703 142c10.8-1 21.7 1.3 31.4 6.3ZM362.9 175c-1.9 8.3-.8 16.4 0 24.8.7 8.3 3 16.8 5.6 24.7 2.8 9 8.5 17.4 13.7 25.2-1.3 1.6-2.5 4.2-4.4 5-5.9 2.7-11.6 5.5-17 9-4.3-2-7.7-5.3-10.4-9-5-8-7.7-17.3-7.8-26.7a78.4 78.4 0 0 1 10.2-41.2c2.6-4.7 6.3-8.2 10-11.8Z"/><path d="M404 178.8c8.4.2 16.5 1.9 23.4 7 4.7 3.1 7.8 7.7 9.3 13.2 2 7.4.5 14.8-3.2 21.3a175.1 175.1 0 0 0-37.1 16c-4 2.4-7.5 5.5-10.8 9-4.7-7-9.5-14.6-11.9-22.8a107.2 107.2 0 0 1-5.6-32.4c2.7-2.5 5-5 8.4-6.5 8.7-3.6 18.1-5.3 27.5-4.8ZM764.5 200.5a100.1 100.1 0 0 1 36.1 45 52.5 52.5 0 0 1 3.2 25.5 32 32 0 0 1-14.2 22.6c-6.6 4.2-15 6.7-22.8 6.5-2.5-2.1-4.5-4.8-7.2-6.7-10.5-8.1-23-14-34.4-20.7-14.8-8.2-29-17.3-43.9-25.5-7.8-18.7-4.2-41.4 5.3-59a45.3 45.3 0 0 1 21.2-6.3c20-1.3 40.7 7.2 56.7 18.6ZM340.6 200.3c-5 16.9-6 36.8 2.3 52.8 2.7 6 7.2 10.5 12.3 14.3-9 6-16.6 13.5-23.3 22-4.4-.3-8.5-.6-12.3-3-7.6-4.3-11.4-12.3-13-20.6a63.1 63.1 0 0 1 7.7-39.5 60.7 60.7 0 0 1 26.3-26ZM504 217c6 .4 12 1.6 18 3.3 5.6 1.6 11 4.7 16.1 7.6 2.4 1.2 4.3 3 6.1 5-7.6 3.3-15 6.8-21.9 11.4-13.7 9.1-25.1 21-34.6 34.4a15 15 0 0 0-4.8 2.2c-11.5 7.8-22.3 18-29.5 30-9.5.6-19 .2-28.3-1-9.8-1-20.4-3.1-28.9-8.3a45.5 45.5 0 0 1-15.3-16.5c-1.4-2.2-1.7-5.8-3.9-7.2-2.4-.8-4 1.6-3.5 3.9a39.8 39.8 0 0 0 9 15.6 50 50 0 0 0 29.6 16.2 103 103 0 0 1-36 10c-8 .2-16-1.3-22.2-6.5-3.7-2.7-5.8-6.4-8.8-9.7-2.6 1.3-3.6 2.4-2.6 5.4a37 37 0 0 0 14.2 13A184.8 184.8 0 0 0 341 347a264.5 264.5 0 0 0-21.9 42 105.2 105.2 0 0 1-3.7-39c2-14.4 4.9-28.2 11.3-41.4A108.3 108.3 0 0 1 347 281c8.1-7.6 17.3-13.9 27.2-19 .6 1.6.9 2.7 2.6 3.2 2.8-.2 3.6-2.4 5-4.5a52 52 0 0 1 15.6-18.3c8-5.5 17.2-9.3 26.3-12.7 25-9.2 53.3-16.2 80.2-12.8Z"/><path d="M583 229.5c10.7-1.6 21.2-1 32-.6 25.9 3.6 48.4 14.3 70.7 27.4 16.8 10 33.6 19.9 50.7 29.3 7 4 13.9 7.7 20.2 12.8 4.8 3.7 8.3 9.4 11.6 14.4 11.4 15.4 16 35.6 18.8 54.2 2.4 18.4 3.2 37 1.1 55.5a163 163 0 0 1-3.5 24.5c-1.4 6-2.8 11.6-6.3 16.8a57.8 57.8 0 0 0-31.3-9.2c-.7-17-8.5-34-22.6-44-1.5-1.4-4.4-1.5-5 .8-.7 2.7 1.5 3.5 3.2 5a49.3 49.3 0 0 1 17 26.8c6 23-3 50-23.2 63a43.5 43.5 0 0 1-28.3 6.8 75.6 75.6 0 0 0 19.4-44c1-7 .9-14.1-.5-21a29 29 0 0 0-11.5-19.9c-1-6.6-2.5-13.1-5.4-19.2-.5-1.5-1.6-2.8-.6-4.4 2.3-4.1 5.5-8.4 7-13 .4-1.9-.3-4.4-2.5-4.7-3-.5-6 2.3-8.8 2-2.3-1-4-3.7-5.3-5.7-4.2-6.6-5-13.3-7.8-20.8 5.2-3.1 11.5-6 15.5-10.7 3-3.4 5-7.2 7-11.2 12-2.5 22.4-9 30.1-18.6 1.3-1.7.7-4.6-1.7-4.6-1.9-.3-3 1.5-4.2 2.6a46.8 46.8 0 0 1-14 11A66.6 66.6 0 0 1 668 336c-11.9-1.6-21.4-6.9-31.9-12.1-1.9-1-3.6-2-5.4-3.2 6.7 1.3 13.5 2 20.3 2.6 11.1 1 22.5-.1 33.6-1 2.9-.4 2.7-2.2 3-4.6-2.3-.6-4.3-1.1-6.6-.8-11.4.8-22.7 1.5-34 .3-23.1-2.3-46.8-9.6-69.2-15.8a157 157 0 0 0-53.8-7.6c-14 .8-28 3.3-41.7 6.2a14 14 0 0 1 1.7-5c9.9-17 22.3-32.1 38.4-43.7 18-12.7 38.9-19.5 60.6-21.8ZM316 399.6c-1.8 5.5-4.1 10.6-5 16.4-1 6.4-3.5 12.2-3.8 18.8-6.6 2.4-12.5 6-17.6 10.8a97.4 97.4 0 0 0-27.5 44.6c-.5-5.4-.7-10.8-.3-16.2a92.6 92.6 0 0 1 54.1-74.4ZM760 581c8.5 5.8 11.1 17.4 9.9 27a52.1 52.1 0 0 1-17.6 32.7 46.4 46.4 0 0 0-6.7-30.2 54.1 54.1 0 0 0-27-23.6l2.6-4.4c6.6 2.3 13 1.5 19.8 1.8 6.7.2 12.5-2 19-3.3Z"/></g></g><g transform="translate(-161 -83)"></g></g></svg>