<svg xmlns="http://www.w3.org/2000/svg" viewBox="0 0 762 762" fill="none" shape-rendering="auto" width="512" height="512"><desc>"Adventurer" by "Lisa Wischofsky", licensed under "CC BY 4.0". / Remix of the original. - Created with dicebear.com</desc><metadata xmlns:dc="http://purl.org/dc/elements/1.1/" xmlns:cc="http://creativecommons.org/ns#" xmlns:rdf="http://www.w3.org/1999/02/22-rdf-syntax-ns#"><rdf:RDF><cc:Work><dc:title>Adventurer</dc:title><dc:creator><cc:Agent rdf:about="https://www.instagram.com/lischi_art/"><dc:title>Lisa Wischofsky</dc:title></cc:Agent></dc:creator><dc:source>https://www.figma.com/community/file/1184595184137881796</dc:source><cc:license rdf:resource="https://creativecommons.org/licenses/by/4.0/" /></cc:Work></rdf:RDF></metadata><mask id="viewboxMask"><rect width="762" height="762" rx="0" ry="0" x="0" y="0" fill="#fff" /></mask><g mask="url(#viewboxMask)"><path d="M396 164.8a224.8 224.8 0 0 1 104.8 42.4c6.2 4.9 12.5 9.4 18 15a225.4 225.4 0 0 1 71.8 149 58.5 58.5 0 0 1 50.9 42.2 71 71 0 0 1-27.6 76.5c-11 7.7-24.5 12-38 11.7-5 0-10-1.6-15-1.8-1.9 2.2-3.3 4.9-4.8 7.3A223.3 223.3 0 0 1 389 609.8c-11 .7-21.9 2-33 .7a223.7 223.7 0 0 1-178.8-342.3A223.4 223.4 0 0 1 352 163.5c14.6-1.4 29.4-.3 44 1.3Z" fill="#000"/><path fill-rule="evenodd" clip-rule="evenodd" d="M498.8 213.2A216 216 0 0 0 363 169c-13-.2-26.2 1.6-39 4a218 218 0 0 0-113.6 365.5 218.5 218.5 0 0 0 260.4 40.2c35-18.8 64.2-47.3 84.4-81.5l-3-1.6c-2.8-1.4-5.7-3-8-5-2.2-2-.3-5.8 2.7-4.7 1.5.7 3 1.6 4.4 2.4a55 55 0 0 0 59.6-3.6 64.5 64.5 0 0 0 25-69.8 53.1 53.1 0 0 0-24-31 52.6 52.6 0 0 0-47-2.8c-1.6.8-3.4 1.5-5 1.3-2.5-.2-2.8-4.2-.6-5.2 8-4 16.5-5.6 25.4-6.4a217 217 0 0 0-72-146.4c-4.4-4-8.7-8.1-13.9-11.3Zm107.6 196.2c2-1.2 1.3-5.1-1.4-5-2 0-4.2.8-6.2 1.6l-1.4.4a95.1 95.1 0 0 0-25.5 12.4c-2.2 2-2.2 4.4.1 6.2a92 92 0 0 0 5.2 2.8 36 36 0 0 1 13 9.2c-.2 1.9-2 3.4-3.4 4.5l-.2.2c-3.9 3-8.8 5-13.6 7-2.5 1-4.9 2-7.1 3.1-1.7.8-2.6 2.2-1.6 3.9 1 2 3.2 1.1 5 .5l.6-.2 5.4-2.3c5.4-2.3 11-4.5 15.4-8 2.7-2.1 5.1-5.1 5.4-8.7-.5-3.4-2.7-5.7-5.3-7.8a83 83 0 0 0-11.6-7.2l-1.1-.6c5.4-3 10.8-5.6 16.6-7.7l5-1.7a52 52 0 0 0 6.7-2.6Z" fill="#9e5622"/><g transform="translate(-161 -83)"><path d="M574.5 426.5a66.4 66.4 0 0 1 34 22.7c7.5-5.1 14.7-10.7 22.4-15.7l3 1.3c-.3 2.1-.2 3.6-2.2 4.9l-20 14.2a64.5 64.5 0 0 1 9.8 44c-.5 2.7-3 3.4-5.5 3.6-19.7 1-39.4 3-59 5.4-11 1.5-22.2 2-33.2 3.6l-13.6 1.8c-5 .7-9.5 1.7-14.5.3a65.2 65.2 0 0 1 78.8-86.1Z" fill="#000"/><path d="M565.5 430.4a59.8 59.8 0 0 1 50.7 65.2c-4.7.4-9.5 1-14.2 1.2-18 1.2-36 3.3-53.8 5.4 1-3 2.2-6 2.5-9.2.8-9.3-4.1-18.8-12.3-23.4a25 25 0 0 0-17.5-2.7 24.5 24.5 0 0 0-19.5 25.1 25 25 0 0 0 6.3 15.8l-7.3.7a59.3 59.3 0 0 1 35.4-74.9 60.5 60.5 0 0 1 29.7-3.2Z" fill="#fff"/><path d="M416.5 455.4a55 55 0 0 1 23.3 61.7c-5.4 1-10.4.5-15.8.5-24-.2-48-.1-72 1.5-5.9-.1-12.6 1.6-17.8-1.2-1-4.6-2.1-9.2-2.3-13.9-.3-10 2.2-20 6.8-29-6-3.9-12.3-7.5-18.2-11.6-1.9-1.4-1.7-2.7-.8-4.7 2.7-1 4.5.5 6.8 1.8l15.2 9.8a55.3 55.3 0 0 1 74.8-14.9Z" fill="#000"/><path d="M400.8 454.5a49.4 49.4 0 0 1 34.3 57.9l-5.6.1a26 26 0 0 0 2.9-14.5c-1-8.6-7.3-16.1-15.6-18.6a22 22 0 0 0-28.5 19.6c-.4 4.7 1 9 2.8 13.2-13.4 0-26.8.6-40 1.6-3.8.2-8 .7-11.6-.3-1.6-3-1.6-7.1-1.8-10.5a49.1 49.1 0 0 1 63.1-48.5Z" fill="#fff"/></g><g transform="translate(-161 -83)"><path d="M502 385c9.9 0 19.9 3.2 28.8 7.3 3.4 1.8 7 4 7.3 8.3-5.1-.9-10.1-2.1-15.4-2.3a58.7 58.7 0 0 0-33.2 7.2c-2.5 1.4-5 3.3-7.6 4.4-1.8.2-4-2-4-3.8-.2-5.8 2-11.9 6.6-15.7A27 27 0 0 1 502 385ZM414 402.6c5.8.2 11 5.3 12.5 10.6.8 2.7-.4 5.8-3.5 5.7-8.8.2-18.2 0-26.8 2.2-7.5 2-14.7 6.7-21.4 10.8-1.2.8-2.5 1-4 1.2.4-2 .7-3.7 2-5.2 3.3-4.4 6.8-8.6 10.7-12.3 6-5.2 13-9 20.4-11.7 3.2-1.1 6.7-1.6 10.1-1.3Z" fill="#000"/></g><g transform="translate(-161 -83)"><path d="m525 563.7 1.2 2.3c.4 2.7-2 3.4-3.8 4.4a184 184 0 0 1-85.8 17c-5-.6-10.2-.7-15-2-2.3-1-2.6-4-.3-5.2 2.7 0 5.5.9 8.2 1 7.2 1 14.3.7 21.5.7 22.5-.8 45-6.8 65.7-15.5 2.8-1.2 5.2-2.6 8.3-2.7Z" fill="#000"/></g><g transform="translate(-161 -83)"></g><g transform="translate(-161 -83)"></g><g transform="translate(-161 -83)"><path d="M427 180.2a58 58 0 0 1 39.7 10.1c6.4 4.7 11.9 10.9 14.7 18.4a28.3 28.3 0 0 1 0 20 338 338 0 0 1 98.6-14.5c7.3.2 14.7.7 22 1.3a205.3 205.3 0 0 1 88.6 28.9 160.1 160.1 0 0 1 58.4 63.5 179 179 0 0 1 18.5 69.6c27.4-6.6 57.5 7 73.2 29.8a57.4 57.4 0 0 1 10.9 37.6c-.2 1.8-2 3-3.6 3.3-2.6-.6-5-2.5-7.5-3.6a138.2 138.2 0 0 0-43.3-12.5c27 18.4 47.5 46.4 57 77.7 5 15.9 6.6 32.7 4.8 49.2a86 86 0 0 1-20.5 47.4c-1.6 1.8-5.3 2.4-6.1-.3 0-10.2.6-22-4.7-31.2a89.3 89.3 0 0 1-77.2 61.2c-15.1 2-31-.2-45.4-4.9-4.5 6.3-7.6 14-6.6 21.8.3 1.7-1.2 2.5-2.3 3.5-2.3-1.6-4.8-3-7.2-4.6-6-3.9-11-8.8-15.8-14.1-1-1-1.2-2.3-1.5-3.8 18.3-16 34-35.2 46-56.3 1.4-2.7 4-1.5 6.3-1a56 56 0 0 0 48.5-9.2 65.7 65.7 0 0 0 26-42.5c1.4-10.4 1-20.9-2.9-30.7-4.8-13-14.5-24-27.2-29.7-11.6-5.4-25-6-37-2.3a135 135 0 0 1-18.6 32.5 142.4 142.4 0 0 1-25 24c-1.7 1.3-3.4 2.4-5.2.6-1.5-1.8.5-5.1.8-7.2 3-12.8 6-26 6-39.2.7-11 .1-22.1-1.7-33-.5-2.6-.6-5.6-1.8-8-3-.3-6-.2-9-.8a48.8 48.8 0 0 1-22.2-10.9 37.7 37.7 0 0 1-13.4-27.3 39.2 39.2 0 0 0-4.4 21c0 1.8.7 4.7-.8 6-1.8 1.1-4 1.5-6 1.8-12 1.4-24.7.5-36-3.9a51 51 0 0 1-26-22 61.5 61.5 0 0 1-6.9-37.4c.4-3.4 1.2-6.6 1.4-10-4.3 7.9-7.6 16-9 25A69.7 69.7 0 0 0 555 408c.4 1.5 1.2 3.3.7 4.8-.4 1.6-2.2 2.1-3.7 1.4a52.4 52.4 0 0 1-20-17.6c-.4 4.6.1 8.4 1.6 12.8.4 2 2 4.6.4 6.4-1.3 1.9-3.8 2-5.8 2.5a365 365 0 0 1-48.2 6.1c-8.9 1-18 .6-27 .6-19.5-.9-39.7-3.3-57.6-11.5-11-5-21.2-12.4-26.6-23.5a47 47 0 0 1-4-16.3c-2.8 2.7-4.8 6-6.6 9.4a72.5 72.5 0 0 0-8.1 33.8c0 3 .8 6 .6 9.1-.6 2.3-3.7 2.2-5.6 1.8a92.6 92.6 0 0 1-18.8-6.2c-3.4-1.5-6.4-3.5-9.9-4.9a222 222 0 0 0-6.3 50.2c-1 52 17.7 104 51.3 143.6 2.3 2.7 4.9 4.8 5.4 8.6a12 12 0 0 1-7.8 3.4c-18.5 2.6-36-5-49.8-16.8A94.6 94.6 0 0 1 278 553c-1.4-7-1.3-13.9-1.2-21a56.6 56.6 0 0 0-15.3 35.6c0 1.4-2 2.4-3.4 2-1.4-.4-2-1.7-2.7-3A146.7 146.7 0 0 1 242 495c1.4-22 7.5-44.8 19.5-63.5 9-14 21-25.5 36.6-31.6a70.5 70.5 0 0 1-14.4-44.9c.5-21.6 9.5-42 22.4-59a149.9 149.9 0 0 1 76-51.6 131 131 0 0 1 51-5c4.7.4 9.2 1.6 14 2.3.1-10-4.8-18.3-11.6-25.1a54.3 54.3 0 0 0-31.6-15.3c-2.3-.4-5.1.3-6.2-2.2-.4-2.6 1.6-4.5 3-6.4a40.7 40.7 0 0 1 26.3-12.5Z" fill="#000"/><path d="M432 185.6c12.7-.2 25.4 4 35 12.4 4.9 4.4 9 10.4 10 17 1.3 5.2-.1 10.6-2.9 15.1-1 1.5-1.7 3.6-.1 4.9 2.2 1.5 5.6.4 8-.3a309 309 0 0 1 117-13.6 202.5 202.5 0 0 1 85 26c23.8 14 43.9 34.2 57.2 58.5A173 173 0 0 1 762 379c.1 1.8 0 3.4 1.9 4.3 1.3.7 2.6.3 4 0 22.8-6 48.3 4 63.5 21.4a56.4 56.4 0 0 1 14.8 36.9 136.2 136.2 0 0 0-59.1-16c-2.3-.2-3.5 0-4.3 2.3 0 2.4 1.7 3 3.3 4 26 15 46.6 39.3 58.2 67 6.6 16 10.3 33.7 9.7 51.1-.6 17-5.7 34.3-16 48-.3-4.4-.3-8.8-1-13a67 67 0 0 0-6.5-18.5c-.9-1.8-2.5-2.6-4.4-1.6-2 .7-2 2.5-2.7 4.2a82.6 82.6 0 0 1-61.5 59.3c-17.6 4.3-36.6 3-53.8-2.3-2.7-.8-5.2-.4-7 1.9a40.9 40.9 0 0 0-8.2 19.8 72.2 72.2 0 0 1-14.2-12c5.8-5.6 11.7-11.1 17-17.2 10-11 18.4-23.3 26-36 5.6.6 10.8 2 16.4 2a66.2 66.2 0 0 0 52.7-27A72.4 72.4 0 0 0 805 518c.4-14-3.2-28.2-11.4-39.7-9-12.9-23.9-22-39.7-23.5-6.7-1.1-13.3-.6-20 .8 0-2.3.9-4.3-.8-6.2-1.9-.3-3.2-.3-3.8 1.7-2.4 9.6-7.2 18.7-12.2 27.1a129 129 0 0 1-27.2 31.6c2.6-13 5.5-25.4 5.2-38.8.6-14.2-1-28.2-4.2-42-.3-1.6-1.1-3-3-3-5.5-.1-10.7.2-16-2-8.2-3.4-16.7-9-21.2-16.9a48 48 0 0 1-4.5-25.2c-1.1-2.3-4-1.9-5.1.2-2.5 4.3-5.2 8.7-7 13.4a53.4 53.4 0 0 0-3.3 20.4c-15 2-31.6.2-44.4-8.4a45.2 45.2 0 0 1-18.9-29 72.5 72.5 0 0 1 3.5-37.5c.6-1.8 1.7-4.1.8-6-1.2-2.1-4.2-1.3-5.8 0a77.9 77.9 0 0 0-19.5 48c-1 7.7 0 15 1.3 22.6a54 54 0 0 1-14-16.5c-1.5-2.8-5.4-2.4-6.2.7a40.4 40.4 0 0 0 1 22.6 325.7 325.7 0 0 1-88.7 6.1 122 122 0 0 1-49.5-14 38.4 38.4 0 0 1-18.6-22.4c-1.4-5.2-.6-10-.7-15.2-1.3-2-3.4-2.3-5.3-1a44 44 0 0 0-14.5 18.6 76.3 76.3 0 0 0-7 37.4 77 77 0 0 1-38.5-21.8 64 64 0 0 1-16-50.2c1-12.2 5.2-24.3 11-35 9.5-17.8 24-33 40.5-44.5 19.5-13.6 42-22.5 65.6-25.2 13.7-1.7 27.6-.6 41 3 2 .6 3.2-.6 3.9-2.3 2.2-9-.5-17.7-5.5-25.1a59.9 59.9 0 0 0-40.6-25.2 39 39 0 0 1 26.2-10ZM302 404.7c3 3 6.2 5.7 9.5 8.4a220.7 220.7 0 0 0-7.2 55.9A223 223 0 0 0 359 616.7c-10.4 1.9-21-.6-30.5-5-14.4-7-26.4-19.1-34.4-32.8a80.6 80.6 0 0 1-11.6-44.9c0-2.7.8-5.4.7-8-.8-2.3-3-2.7-5-1.7-4.3 2-7.7 5.9-10.4 9.5-5 6.7-8.4 14.3-10.6 22.2a140 140 0 0 1-9.7-57c1-23.4 7.3-47.5 20.6-67a69.2 69.2 0 0 1 34-27.3Z" fill="#ac6511"/></g><g transform="translate(-161 -83)"><path d="M737.2 554.1c3.4-.8 7-.4 9.4 2.3a9.2 9.2 0 0 1-.7 13.5c-4.3 3.5-11.5 2.3-14-2.9-2.8-4.7.1-11.3 5.3-12.9Z" fill="#000"/></g></g></svg>